<svg width="376" height="497" viewBox="0 0 376 497" fill="none" xmlns="http://www.w3.org/2000/svg">
<g clip-path="url(#clip0)">
<rect width="376" height="496" rx="22" fill="#75B86A"/>
<rect x="105" width="171" height="61" stroke="white" stroke-width="2"/>
<rect x="160" y="1" width="60" height="22" stroke="white" stroke-width="2"/>
<rect x="275" y="496" width="171" height="61" transform="rotate(180 275 496)" stroke="white" stroke-width="2"/>
<rect x="220" y="495" width="60" height="22" transform="rotate(180 220 495)" stroke="white" stroke-width="2"/>
<line x1="2.00282" y1="246" x2="376.003" y2="247.054" stroke="white" stroke-width="2"/>
<circle cx="187" cy="248" r="49" stroke="white" stroke-width="2"/>
<circle cx="187" cy="248" r="106" stroke="white" stroke-opacity="0.1" stroke-width="20"/>
<circle cx="187" cy="248" r="74" stroke="white" stroke-opacity="0.1" stroke-width="20"/>
<path d="M326 248C326 324.768 263.768 387 187 387C110.232 387 48 324.768 48 248C48 171.232 110.232 109 187 109C263.768 109 326 171.232 326 248Z" stroke="white" stroke-opacity="0.1" stroke-width="20"/>
<path d="M358 248C358 342.441 281.441 419 187 419C92.5593 419 16 342.441 16 248C16 153.559 92.5593 77 187 77C281.441 77 358 153.559 358 248Z" stroke="white" stroke-opacity="0.1" stroke-width="20"/>
<path d="M391 248C391 360.666 299.666 452 187 452C74.3339 452 -17 360.666 -17 248C-17 135.334 74.3339 44 187 44C299.666 44 391 135.334 391 248Z" stroke="white" stroke-opacity="0.1" stroke-width="20"/>
<path d="M431 248C431 382.757 321.757 492 187 492C52.2425 492 -57 382.757 -57 248C-57 113.243 52.2425 4 187 4C321.757 4 431 113.243 431 248Z" stroke="white" stroke-opacity="0.1" stroke-width="20"/>
<path d="M467 248C467 402.64 341.64 528 187 528C32.3603 528 -93 402.64 -93 248C-93 93.3603 32.3603 -32 187 -32C341.64 -32 467 93.3603 467 248Z" stroke="white" stroke-opacity="0.1" stroke-width="20"/>
</g>
<defs>
<clipPath id="clip0">
<rect width="376" height="497" fill="white"/>
</clipPath>
</defs>
</svg>
